<?xml version="1.0" encoding="UTF-8" standalone="no"?>
<!DOCTYPE svg PUBLIC "-//W3C//DTD SVG 20010904//EN"
              "http://www.w3.org/TR/2001/REC-SVG-20010904/DTD/svg10.dtd">

<svg xmlns="http://www.w3.org/2000/svg"
     width="3.33333in" height="0.546667in"
     viewBox="0 0 1000 164">
  <path id="Unnamed"
        fill="none" stroke="black" stroke-width="1.5"
        d="M 72.32,80.40
           C 108.03,74.79 118.16,46.81 105.28,28.74
             92.40,10.66 19.63,-0.47 13.28,59.06
             6.93,118.59 139.26,111.85 199.68,97.95
             260.10,84.05 425.22,51.20 424.36,99.50
             423.50,147.79 304.56,84.47 271.43,64.68
             238.30,44.88 134.11,-20.68 134.11,35.48
             134.11,91.64 373.04,26.49 399.13,24.24
             425.22,22.00 530.95,2.90 529.58,71.42
             528.21,139.93 469.16,144.42 469.16,71.42M 923.67,78.16
           C 887.97,72.54 885.05,44.11 894.55,27.82
             904.05,11.53 976.18,-5.56 986.38,53.79
             996.59,113.14 859.48,111.85 799.06,97.95
             738.64,84.05 573.52,51.20 574.38,99.50
             575.24,147.79 694.19,84.47 727.31,64.68
             760.44,44.88 864.63,-20.68 864.63,35.48
             864.63,91.64 625.70,26.49 599.61,24.24
             573.52,22.00 467.79,2.90 469.16,71.42" />
</svg>
